<svg width="50" height="20" viewBox="0 0 50 20" fill="none" xmlns="http://www.w3.org/2000/svg">
  <path d="M35.4167 3.83333H29.5833C29.1667 3.83333 28.75 4.16667 28.6667 4.58333L26.4167 16.8333C26.4167 17.1667 26.5833 17.4167 26.9167 17.4167H29.75C30.1667 17.4167 30.5 17.0833 30.5833 16.6667L31.0833 13.6667C31.1667 13.25 31.5 12.9167 31.9167 12.9167H33.5833C37.0833 12.9167 39.0833 11.1667 39.5833 7.83333C39.8333 6.41667 39.5 5.33333 38.8333 4.58333C38.0833 4.08333 36.9167 3.83333 35.4167 3.83333ZM36 8.08333C35.75 10 34.3333 10 33 10H32.25L32.75 7.08333C32.75 6.91667 32.9167 6.75 33.0833 6.75H33.4167C34.25 6.75 35 6.75 35.4167 7.25C35.6667 7.5 35.75 7.75 36 8.08333Z" fill="#253B80"/>
  <path d="M15.4167 3.83333H9.58333C9.16667 3.83333 8.75 4.16667 8.66667 4.58333L6.41667 16.8333C6.41667 17.1667 6.58333 17.4167 6.91667 17.4167H9.58333C10 17.4167 10.4167 17.0833 10.5 16.6667L11 13.6667C11.0833 13.25 11.4167 12.9167 11.8333 12.9167H13.5C17 12.9167 19 11.1667 19.5 7.83333C19.75 6.41667 19.4167 5.33333 18.75 4.58333C18.0833 4.08333 16.9167 3.83333 15.4167 3.83333ZM16 8.08333C15.75 10 14.3333 10 13 10H12.25L12.75 7.08333C12.75 6.91667 12.9167 6.75 13.0833 6.75H13.4167C14.25 6.75 15 6.75 15.4167 7.25C15.6667 7.5 15.8333 7.75 16 8.08333Z" fill="#179BD7"/>
  <path d="M25.4167 8.08333H22.75C22.5833 8.08333 22.4167 8.25 22.4167 8.41667L22.3333 8.91667L22.1667 8.66667C21.6667 7.91667 20.5833 7.66667 19.5 7.66667C17.25 7.66667 15.4167 9.33333 15 11.5C14.75 12.5833 15 13.5833 15.5833 14.25C16.0833 14.8333 16.8333 15.0833 17.75 15.0833C19.5833 15.0833 20.5 13.9167 20.5 13.9167L20.4167 14.4167C20.4167 14.75 20.5833 15 20.9167 15H23.3333C23.75 15 24.0833 14.6667 24.1667 14.25L25.4167 8.75C25.5 8.5 25.75 8.08333 25.4167 8.08333ZM21.0833 11.5833C20.8333 12.6667 20 13.3333 18.9167 13.3333C18.4167 13.3333 18 13.1667 17.8333 12.8333C17.6667 12.5833 17.5833 12.1667 17.6667 11.75C17.8333 10.6667 18.75 9.91667 19.8333 9.91667C20.3333 9.91667 20.75 10.0833 20.9167 10.4167C21.0833 10.75 21.1667 11.1667 21.0833 11.5833Z" fill="#253B80"/>
  <path d="M45.4167 8.08333H42.75C42.5833 8.08333 42.4167 8.25 42.4167 8.41667L42.3333 8.91667L42.1667 8.66667C41.6667 7.91667 40.5833 7.66667 39.5 7.66667C37.25 7.66667 35.4167 9.33333 35 11.5C34.75 12.5833 35 13.5833 35.5833 14.25C36.0833 14.8333 36.8333 15.0833 37.75 15.0833C39.5833 15.0833 40.5 13.9167 40.5 13.9167L40.4167 14.4167C40.4167 14.75 40.5833 15 40.9167 15H43.3333C43.75 15 44.0833 14.6667 44.1667 14.25L45.4167 8.75C45.5 8.5 45.75 8.08333 45.4167 8.08333ZM41.0833 11.5833C40.8333 12.6667 40 13.3333 38.9167 13.3333C38.4167 13.3333 38 13.1667 37.8333 12.8333C37.6667 12.5833 37.5833 12.1667 37.6667 11.75C37.8333 10.6667 38.75 9.91667 39.8333 9.91667C40.3333 9.91667 40.75 10.0833 40.9167 10.4167C41.0833 10.75 41.1667 11.1667 41.0833 11.5833Z" fill="#179BD7"/>
</svg> 