<svg width="50" height="16" viewBox="0 0 50 16" fill="none" xmlns="http://www.w3.org/2000/svg">
  <path d="M19.128 15.52H15.263L17.548 0.48H21.413L19.128 15.52Z" fill="#00579F"/>
  <path d="M35.328 0.848C34.488 0.528 33.168 0.16 31.568 0.16C27.703 0.16 24.948 2.24 24.928 5.12C24.888 7.28 26.928 8.48 28.488 9.2C30.088 9.92 30.608 10.4 30.608 11.04C30.588 12.08 29.328 12.56 28.168 12.56C26.528 12.56 25.648 12.32 24.328 11.76L23.768 11.52L23.168 14.96C24.168 15.36 25.968 15.76 27.848 15.76C31.948 15.76 34.648 13.76 34.688 10.64C34.708 8.88 33.728 7.52 31.368 6.48C29.928 5.84 29.048 5.36 29.048 4.64C29.068 3.92 29.848 3.2 31.548 3.2C32.928 3.2 33.928 3.52 34.688 3.84L35.088 4L35.688 0.72L35.328 0.848Z" fill="#00579F"/>
  <path d="M40.9272 10.16C41.3272 9.12 42.9672 4.88 42.9672 4.88C42.9472 4.96 43.3472 3.92 43.5672 3.28L43.8672 4.72C43.8672 4.72 44.8272 9.28 45.0272 10.16H40.9272ZM47.5872 0.48H44.5472C43.5872 0.48 42.8272 0.8 42.3872 1.84L36.2272 15.52H40.3272L41.2672 12.88H46.6272L47.1872 15.52H50.7872L47.5872 0.48Z" fill="#00579F"/>
  <path d="M13.488 0.48L9.64794 10.8L9.20794 8.72C8.40794 6.16 6.32794 3.44 3.96794 2.08L7.48794 15.52H11.608L17.608 0.48H13.488Z" fill="#00579F"/>
  <path d="M6.208 0.48H0.0879941L0.0479941 0.8C4.848 1.92 8.048 5.04 9.208 8.72L7.888 1.84C7.648 0.8 7.008 0.512 6.208 0.48Z" fill="#FAA61A"/>
</svg> 