<svg width="32" height="32" viewBox="0 0 32 32" fill="none" xmlns="http://www.w3.org/2000/svg">
  <rect width="32" height="32" rx="8" fill="#14B8A6"/>
  <path d="M16 6C10.477 6 6 10.477 6 16C6 21.523 10.477 26 16 26C21.523 26 26 21.523 26 16C26 10.477 21.523 6 16 6ZM8 16C8 15.474 8.055 14.961 8.159 14.464H11.171C11.113 14.968 11.077 15.479 11.077 16C11.077 16.521 11.113 17.032 11.171 17.536H8.159C8.055 17.039 8 16.526 8 16ZM8.949 19.536H11.59C11.897 20.898 12.402 22.108 13.074 23.026C11.022 22.231 9.483 21.051 8.949 19.536ZM11.59 12.464H8.949C9.483 10.949 11.022 9.769 13.074 8.974C12.402 9.892 11.897 11.102 11.59 12.464ZM16 24.342C15.054 23.692 14.29 22.152 13.846 20.536H18.154C17.71 22.152 16.946 23.692 16 24.342ZM18.622 18.536H13.378C13.308 18.036 13.261 17.525 13.261 17C13.261 16.476 13.308 15.964 13.378 15.464H18.622C18.692 15.964 18.739 16.476 18.739 17C18.739 17.525 18.692 18.036 18.622 18.536ZM18.926 23.026C19.598 22.108 20.103 20.898 20.41 19.536H23.051C22.517 21.051 20.978 22.231 18.926 23.026ZM20.829 17.536C20.887 17.032 20.923 16.521 20.923 16C20.923 15.479 20.887 14.968 20.829 14.464H23.841C23.945 14.961 24 15.474 24 16C24 16.526 23.945 17.039 23.841 17.536H20.829ZM18.926 8.974C20.978 9.769 22.517 10.949 23.051 12.464H20.41C20.103 11.102 19.598 9.892 18.926 8.974ZM16 7.658C16.946 8.308 17.71 9.848 18.154 11.464H13.846C14.29 9.848 15.054 8.308 16 7.658Z" fill="white"/>
</svg> 